<?xml version="1.0" encoding="UTF-8" standalone="no"?><!DOCTYPE svg PUBLIC "-//W3C//DTD SVG 1.1//EN" "http://www.w3.org/Graphics/SVG/1.1/DTD/svg11.dtd"><svg width="100%" height="100%" viewBox="0 0 1240 1240" version="1.1" xmlns="http://www.w3.org/2000/svg" xmlns:xlink="http://www.w3.org/1999/xlink" xml:space="preserve" xmlns:serif="http://www.serif.com/" style="fill-rule:evenodd;clip-rule:evenodd;stroke-linejoin:round;stroke-miterlimit:1.41421;"><g><g><path d="M323.015,1093.53c0,67.087 133.195,121.471 297.5,121.471c164.304,0 297.5,-54.384 297.5,-121.471l-297.5,0l-297.5,0Z"/><path d="M984.522,646.494l0,415.468l-728.037,0l0,-403.478l186.917,186.917c0.162,0.158 0.322,0.318 0.487,0.474c9.853,9.339 24.999,11.893 37.218,6.587c5.242,-2.276 10.432,-7.061 10.432,-7.061l123.066,-123.067l122.977,122.976c0.161,0.158 0.321,0.317 0.484,0.472c12.089,11.455 31.842,12.078 44.528,2.256c0.944,-0.73 1.347,-1.008 3.112,-2.728l198.816,-198.816Zm-728.037,-72.863l0,-67.07l728.037,0l0,55.08l-222.878,222.879l-125.825,-125.826c-3.543,-2.972 -4.295,-3.999 -8.535,-5.976c-6.343,-2.958 -13.682,-3.6 -20.443,-1.788c-4.519,1.211 -5.438,2.091 -9.443,4.403l-4.006,3.361l-125.922,125.922l-210.985,-210.985Z"/><path d="M1105.56,639.141c0,-24.99 -20.288,-45.278 -45.278,-45.278c-24.99,0 -45.278,20.288 -45.278,45.278l0,340.559c0,24.99 20.288,45.278 45.278,45.278c24.99,0 45.278,-20.288 45.278,-45.278l0,-340.559Z"/><path d="M135.451,639.141c0,-24.99 20.289,-45.278 45.278,-45.278c24.99,0 45.278,20.288 45.278,45.278l0,340.56c0,24.989 -20.288,45.278 -45.278,45.278c-24.989,0 -45.278,-20.289 -45.278,-45.278l0,-340.56Z"/><path d="M984.522,531.118c0,-201.041 -162.977,-364.018 -364.018,-364.018c-201.042,0 -364.019,162.977 -364.019,364.018l728.037,0Zm-189.774,-58.313c39.279,-0.029 71.117,-31.884 71.117,-71.117c0,-39.251 -31.866,-71.118 -71.117,-71.118l-348.488,0c-39.251,0 -71.118,31.867 -71.118,71.118c0,39.251 31.867,71.117 71.118,71.117l348.488,0Zm-350.583,-103.878c18.579,0 33.662,14.68 33.662,32.761c0,18.081 -15.083,32.76 -33.662,32.76c-18.579,0 -33.662,-14.679 -33.662,-32.76c0,-18.081 15.083,-32.761 33.662,-32.761Zm345.665,0c18.579,0 33.663,14.68 33.663,32.761c0,18.081 -15.084,32.76 -33.663,32.76c-18.578,0 -33.662,-14.679 -33.662,-32.76c0,-18.081 15.084,-32.761 33.662,-32.761Z"/><path d="M595.376,136.507c-20.814,-9.147 -35.315,-29.531 -35.315,-53.185c0,-32.189 26.853,-58.322 59.928,-58.322c33.075,0 59.928,26.133 59.928,58.322c0,23.654 -14.501,44.038 -35.315,53.185l0,80.047l-49.226,0l0,-80.047Z"/></g></g></svg>